<?xml version="1.0" encoding="UTF-8" standalone="no"?>
<svg width="32px" height="32px" viewBox="0 0 32 32" version="1.1" xmlns="http://www.w3.org/2000/svg" xmlns:xlink="http://www.w3.org/1999/xlink">
    <!-- Generator: Sketch 39.1 (31720) - http://www.bohemiancoding.com/sketch -->
    <title>instagram</title>
    <desc>Created with Sketch.</desc>
    <defs></defs>
    <g id="Page-1" stroke="none" stroke-width="1" fill="none" fill-rule="evenodd">
        <g id="instagram">
            <g>
                <rect id="background" x="0" y="0" width="32" height="32"></rect>
                <path d="M16,6.16528571 C19.2031429,6.16528571 19.5825238,6.17752381 20.847619,6.2352381 C22.0172381,6.28861905 22.652381,6.484 23.0751429,6.64828571 C23.5961948,6.84059619 24.0675229,7.14723773 24.4544762,7.54566667 C24.8529051,7.93261992 25.1595467,8.40394806 25.3518571,8.925 C25.5161429,9.34771429 25.7115714,9.98290476 25.7649048,11.1525238 C25.822619,12.4175238 25.8348571,12.7969048 25.8348571,16.0001429 C25.8348571,19.203381 25.822619,19.5826667 25.7649048,20.8477619 C25.7115238,22.017381 25.5160952,22.6525238 25.3518571,23.0752857 C24.94828,24.1214962 24.1213533,24.9484229 23.0751429,25.352 C22.6524286,25.5162857 22.0172381,25.7117143 20.847619,25.7650476 C19.5828571,25.8227619 19.2034762,25.835 16,25.835 C12.7965238,25.835 12.4172857,25.8227619 11.152381,25.7650476 C9.9827619,25.7116667 9.34761905,25.5162381 8.92485714,25.352 C8.40380448,25.159691 7.93247603,24.8530492 7.54552381,24.454619 C7.14709613,24.0676648 6.84045478,23.5963369 6.64814286,23.0752857 C6.48385714,22.6525714 6.28842857,22.017381 6.23509524,20.8477619 C6.17738095,19.5828095 6.16514286,19.203381 6.16514286,16.0001429 C6.16514286,12.7969048 6.17738095,12.417619 6.23509524,11.1525238 C6.28847619,9.98290476 6.48385714,9.3477619 6.64814286,8.925 C6.84047479,8.4039221 7.14714974,7.93257636 7.54561905,7.54561905 C7.93257333,7.14719137 8.40390118,6.84055002 8.92495238,6.6482381 C9.34766667,6.48395238 9.98285714,6.28852381 11.1524762,6.23519048 C12.4174762,6.17747619 12.7968571,6.1652381 16.0000952,6.1652381 L16,6.16528571 Z M16.0000952,4.0037619 C12.7420952,4.0037619 12.3334286,4.01757143 11.0540952,4.07595238 C9.77719048,4.1342381 8.90519048,4.337 8.14214286,4.63357143 C7.34169518,4.93479196 6.61658672,5.40699 6.01738095,6.0172381 C5.40699533,6.6164063 4.93466544,7.34151758 4.63333333,8.142 C4.337,8.90509524 4.1342381,9.77709524 4.07619048,11.054 C4.01757143,12.3333333 4.0037619,12.742 4.0037619,16 C4.0037619,19.258 4.01757143,19.6666667 4.07619048,20.946 C4.13447619,22.2229048 4.3372381,23.0949048 4.63380952,23.8579524 C4.93503143,24.6583994 5.40722928,25.3835075 6.01747619,25.9827143 C6.61668001,26.5929648 7.34178902,27.0651632 8.1422381,27.366381 C8.90533333,27.6629524 9.77733333,27.8657143 11.0541905,27.924 C12.3337143,27.982381 12.7422381,27.9961905 16.0001905,27.9961905 C19.2581429,27.9961905 19.6668571,27.982381 20.9461905,27.924 C22.2230952,27.8657143 23.0950952,27.6629524 23.8581429,27.366381 C25.4695116,26.7431652 26.7433556,25.4693211 27.3665714,23.8579524 C27.6631429,23.0948571 27.8659048,22.2228571 27.9241905,20.946 C27.9825714,19.6664762 27.996381,19.2579524 27.996381,16 C27.996381,12.7420476 27.9825714,12.3333333 27.9241905,11.054 C27.8659048,9.77709524 27.6631429,8.90509524 27.3665714,8.14204762 C27.0653536,7.34159855 26.5931552,6.61648954 25.9829048,6.01728571 C25.3836868,5.40691595 24.6585255,4.93461779 23.858,4.63333333 C23.0949048,4.337 22.2229048,4.1342381 20.946,4.07619048 C19.6666667,4.01757143 19.258,4.0037619 16,4.0037619 L16,4.0037619 L16.0000952,4.0037619 Z" id="Shape" fill="#000000"></path>
                <path d="M16,9.8397619 C12.5977944,9.8397619 9.8397619,12.5977944 9.8397619,16 C9.8397619,19.4022056 12.5977944,22.1602381 16,22.1602381 C19.4022056,22.1602381 22.1602381,19.4022056 22.1602381,16 C22.1602381,12.5977944 19.4022056,9.8397619 16,9.8397619 L16,9.8397619 Z M16,19.9987143 C13.7915773,19.998688 12.0013158,18.208391 12.0013333,15.9999683 C12.0013509,13.7915455 13.7916408,12.0012769 16.0000635,12.0012857 C18.2084862,12.0012945 19.9987619,13.7915773 19.9987619,16 C19.9987356,18.2084366 18.2084366,19.9987143 16,19.9987143 L16,19.9987143 Z" id="Shape" fill="#000000"></path>
                <circle id="Oval" fill="#000000" cx="22.403619" cy="9.59638095" r="1.43952381"></circle>
            </g>
        </g>
    </g>
</svg>